<?xml version="1.0" encoding="UTF-8"?>
<svg version="1.1" xmlns="http://www.w3.org/2000/svg" width="512" height="512">
<path d="M0 0 C0.85183483 -0.0072672 1.70366966 -0.01453441 2.58131766 -0.02202183 C5.44942188 -0.04033911 8.31620012 -0.02288532 11.18429565 -0.00571251 C13.25570423 -0.01147103 15.3271077 -0.01941033 17.39850044 -0.02934873 C23.10127895 -0.05028209 28.80364079 -0.03987726 34.50642109 -0.02441764 C40.65239137 -0.01313464 46.7982885 -0.03055168 52.94424438 -0.04431725 C64.29180969 -0.06529882 75.63920457 -0.06343387 86.98676568 -0.0497599 C97.46914755 -0.03719025 107.95148055 -0.03389481 118.43386841 -0.03987312 C119.47618355 -0.04044601 119.47618355 -0.04044601 120.53955556 -0.04103047 C123.36017036 -0.04258712 126.18078514 -0.04417912 129.00139988 -0.04582929 C155.46982959 -0.06112996 181.93817437 -0.04724803 208.40659097 -0.02034481 C231.93068256 0.00338388 255.45463884 0.00126077 278.97872925 -0.02264977 C305.39823166 -0.04941341 331.817659 -0.06004492 358.23717308 -0.04458845 C361.05269748 -0.04298482 363.8682219 -0.04142062 366.68374634 -0.03987312 C367.72365422 -0.03928004 367.72365422 -0.03928004 368.78457035 -0.03867498 C379.26127751 -0.03298367 389.73793047 -0.03964632 400.21463013 -0.05227089 C412.125176 -0.06655156 424.03556201 -0.06254412 435.94610167 -0.03586717 C442.02669824 -0.02269827 448.10701971 -0.01762909 454.18761444 -0.03411293 C459.74900746 -0.0489616 465.30986917 -0.04090813 470.87121367 -0.01422517 C472.88795816 -0.00861862 474.90474712 -0.01152896 476.92146325 -0.02360411 C479.65416015 -0.0387169 482.38501551 -0.02331245 485.11761475 0 C485.90843185 -0.01170583 486.69924896 -0.02341166 487.51403022 -0.03547221 C491.55974665 0.03394587 493.35233555 0.46312155 496.54712009 3.03297865 C498.60837411 5.69317514 499.18553991 6.70315687 499.18991089 9.98882484 C499.202444 10.816408 499.21497711 11.64399117 499.22789001 12.4966526 C499.2080027 13.81716873 499.2080027 13.81716873 499.18771362 15.16436195 C499.19012558 16.08003441 499.19253754 16.99570686 499.19502258 17.93912697 C499.19404536 19.8697996 499.18068153 21.80050069 499.1557312 23.73101234 C499.1213775 26.68567418 499.13508918 29.63735156 499.1545105 32.59209633 C499.14761301 34.47036426 499.13794151 36.34862448 499.12521362 38.22686195 C499.13017349 39.10923027 499.13513336 39.99159859 499.14024353 40.90070534 C499.02293643 47.00764958 499.02293643 47.00764958 496.68234253 50.14214516 C494.31150022 51.80238895 492.09999808 52.79493187 489.37130737 53.7542057 C485.71354996 54.81190671 485.71354996 54.81190671 483.55880737 57.6292057 C482.97827419 62.34260791 482.97827419 62.34260791 484.99630737 66.3792057 C488.08849944 67.88759208 491.22490356 68.86160464 494.53536987 69.7854557 C496.55880737 70.6292057 496.55880737 70.6292057 498.55880737 73.6292057 C498.81607628 75.72070408 498.81607628 75.72070408 498.82623291 78.17704201 C498.83476288 79.10935646 498.84329285 80.04167091 498.8520813 81.00223732 C498.85117493 82.02309929 498.85026855 83.04396126 498.84933472 84.09575844 C498.85941055 85.7107473 498.85941055 85.7107473 498.86968994 87.3583622 C498.888728 90.92655455 498.89259696 94.49455943 498.89474487 98.06279945 C498.9011683 100.53757747 498.90789631 103.01235472 498.91491699 105.48713112 C498.92690399 110.6781433 498.9305963 115.86908886 498.92941284 121.06011391 C498.92920947 127.71973007 498.95652423 134.37877134 498.99095726 141.03830814 C499.01316675 146.15032867 499.01725222 151.2622457 499.01619339 156.37430954 C499.01855783 158.82996592 499.02742843 161.28562479 499.04285812 163.74123383 C499.062399 167.17221448 499.05672649 170.60226359 499.04464722 174.03325844 C499.05588623 175.05209618 499.06712524 176.07093391 499.07870483 177.12064552 C499.01698013 184.00120839 499.01698013 184.00120839 496.6505127 187.24482155 C493.05927557 189.62166294 490.04385826 189.75398586 485.80880737 189.6917057 C485.00958862 189.68268227 484.21036987 189.67365883 483.38693237 189.66436195 C482.4820105 189.64695961 482.4820105 189.64695961 481.55880737 189.6292057 C481.58499146 190.208881 481.61117554 190.78855629 481.63815308 191.3857975 C481.7425135 194.02915445 481.80725064 196.67207769 481.87130737 199.3167057 C481.9132019 200.22871742 481.95509644 201.14072914 481.9982605 202.08037758 C482.01437378 202.96660805 482.03048706 203.85283852 482.04708862 204.76592445 C482.07327271 205.577631 482.09945679 206.38933754 482.12643433 207.22564125 C481.23024714 211.02046399 479.66915534 212.28095055 476.55880737 214.6292057 C472.83196817 215.37982325 469.15222741 215.29926955 465.36129761 215.25739479 C464.21715865 215.26448918 463.0730197 215.27158357 461.89420986 215.27889293 C458.05160092 215.29652708 454.20999617 215.278339 450.36740112 215.26030922 C447.61617245 215.26268846 444.86498176 215.27253629 442.11376953 215.28199196 C435.41166947 215.30037772 428.70986082 215.29185017 422.00776982 215.27390373 C416.56120956 215.25988195 411.11472844 215.25598401 405.66815186 215.25934601 C404.50568173 215.26006217 404.50568173 215.26006217 403.31972736 215.2607928 C401.74540367 215.26181913 400.17107999 215.26287448 398.59675634 215.26395857 C384.67356658 215.27252752 370.75051757 215.25584436 356.82736206 215.22612953 C343.31493212 215.19729163 329.80270496 215.19020831 316.29025269 215.20562172 C301.5785124 215.22238014 286.86686841 215.22642178 272.15512562 215.20891136 C270.58657139 215.20706696 269.01801714 215.20523223 267.44946289 215.20340729 C266.29180433 215.20203915 266.29180433 215.20203915 265.11075872 215.20064338 C259.67031922 215.19503574 254.2299267 215.19834728 248.78948975 215.20495224 C242.1599821 215.2126812 235.53067412 215.20594878 228.90120673 215.1807772 C225.51818434 215.16827151 222.13573242 215.16429247 218.75265884 215.17331886 C215.08688207 215.1819742 211.42201744 215.16612214 207.75631714 215.1438694 C206.68482642 215.15211017 205.6133357 215.16035093 204.50937557 215.16884142 C197.31617091 215.08793482 197.31617091 215.08793482 193.40936279 212.72161198 C190.5216867 209.45654274 190.42915751 206.74298753 190.46115112 202.5198307 C190.46437378 201.76572914 190.46759644 201.01162758 190.47091675 200.23467445 C190.47929565 199.45736977 190.48767456 198.68006508 190.49630737 197.8792057 C190.50081909 197.08643227 190.50533081 196.29365883 190.50997925 195.47686195 C190.52172173 193.52761062 190.53965592 191.57839832 190.55880737 189.6292057 C185.27880737 189.6292057 179.99880737 189.6292057 174.55880737 189.6292057 C174.64581909 191.70781898 174.64581909 191.70781898 174.73458862 193.82842445 C174.78149614 195.6578178 174.82699524 197.48724765 174.87130737 199.3167057 C174.93414917 200.68472328 174.93414917 200.68472328 174.9982605 202.08037758 C175.01437378 202.96660805 175.03048706 203.85283852 175.04708862 204.76592445 C175.07327271 205.577631 175.09945679 206.38933754 175.12643433 207.22564125 C174.27180836 210.8444768 172.38701933 212.28435092 169.55880737 214.6292057 C166.44313812 215.25841141 166.44313812 215.25841141 162.8789978 215.26412392 C162.22080158 215.27192387 161.56260535 215.27972382 160.88446379 215.28776014 C158.68614398 215.30765238 156.48956086 215.29192916 154.29122925 215.27617836 C152.71240734 215.28295582 151.13359335 215.29185968 149.55479431 215.30272865 C145.27163608 215.32551371 140.98908034 215.31668919 136.70591164 215.30083323 C132.22257494 215.28817002 127.73928966 215.2999155 123.25595093 215.30776405 C115.72708885 215.31685941 108.19847205 215.30487576 100.66964722 215.28106117 C91.966544 215.25385002 83.26402643 215.26266427 74.5609374 215.2901932 C67.08730861 215.31288658 59.61385607 215.31608326 52.14020395 215.30299985 C47.67709663 215.29520657 43.21426454 215.29416028 38.75117493 215.3106823 C34.55500832 215.32513125 30.35959639 215.31509825 26.16351128 215.28621101 C24.6240152 215.27960237 23.08445556 215.2814942 21.54498482 215.29252434 C19.44200643 215.30620222 17.34144169 215.28904344 15.23861694 215.26412392 C14.06245064 215.26223879 12.88628433 215.26035366 11.67447662 215.25841141 C7.62861619 214.4413547 6.12359044 212.79044548 3.55880737 209.6292057 C2.99118042 207.22564125 2.99118042 207.22564125 3.07052612 204.76592445 C3.0866394 203.87969398 3.10275269 202.99346352 3.11935425 202.08037758 C3.16124878 201.16836586 3.20314331 200.25635414 3.24630737 199.3167057 C3.26886597 198.38535805 3.29142456 197.45401039 3.31466675 196.49444008 C3.37338659 194.2043661 3.4554388 191.91762695 3.55880737 189.6292057 C2.63430786 189.64334511 2.63430786 189.64334511 1.69113159 189.65777016 C0.47707642 189.66876747 0.47707642 189.66876747 -0.76150513 189.67998695 C-1.96444214 189.69412636 -1.96444214 189.69412636 -3.19168091 189.70855141 C-6.78278212 189.58188461 -9.27020693 188.5682604 -12.04977512 186.33922672 C-13.84779281 184.12950317 -13.82039567 182.90922414 -13.82887268 180.0813694 C-13.83877731 179.14905495 -13.84868195 178.21674049 -13.85888672 177.25617409 C-13.85438507 176.23531212 -13.84988342 175.21445015 -13.84524536 174.16265297 C-13.85210861 173.08599373 -13.85897186 172.00933449 -13.86604309 170.90004921 C-13.88438353 167.33177029 -13.88046312 163.76392801 -13.87478638 160.19561195 C-13.87934473 157.72083327 -13.88464926 155.24605585 -13.89067078 152.77128029 C-13.89961618 147.58023377 -13.89716246 142.38934098 -13.88723755 137.1982975 C-13.87574697 130.53864125 -13.89595361 123.87971973 -13.92515469 117.22010326 C-13.94348147 112.10806838 -13.9432312 106.99616135 -13.93751717 101.88410187 C-13.93736352 99.42845287 -13.94344371 96.97279545 -13.95580864 94.51717758 C-13.97064957 91.08616229 -13.96009129 87.65613682 -13.94290161 84.22515297 C-13.95256958 83.20631523 -13.96223755 82.18747749 -13.97219849 81.13776588 C-13.89988122 74.26107147 -13.89988122 74.26107147 -11.55290222 71.02799416 C-9.31543631 69.5459052 -7.39846306 68.72102325 -4.81619263 68.0042057 C-1.25726244 67.00781005 -1.25726244 67.00781005 1.55880737 64.6292057 C1.87418454 60.2927697 2.00778585 58.30267341 -0.44119263 54.6292057 C-3.01458353 53.50365801 -3.01458353 53.50365801 -5.94119263 52.6292057 C-11.2189704 50.96253904 -11.2189704 50.96253904 -13.44119263 47.6292057 C-13.71534729 45.70760536 -13.71534729 45.70760536 -13.74758911 43.51250648 C-13.76357651 42.68799995 -13.7795639 41.86349342 -13.79603577 41.01400185 C-13.80139847 40.12647224 -13.80676117 39.23894264 -13.81228638 38.3245182 C-13.82131485 37.40838753 -13.83034332 36.49225685 -13.83964539 35.54836464 C-13.85415348 33.6100129 -13.86303601 31.67161212 -13.86672974 29.73320961 C-13.8786215 26.771918 -13.92779655 23.8127134 -13.978302 20.85186195 C-13.98776689 18.96775753 -13.99500161 17.08364032 -13.99978638 15.1995182 C-14.0193187 14.31603706 -14.03885101 13.43255592 -14.05897522 12.52230263 C-14.05289749 11.69149178 -14.04681976 10.86068092 -14.04055786 10.00469398 C-14.04562851 9.27872017 -14.05069916 8.55274635 -14.05592346 7.80477333 C-12.06166461 0.74697706 -6.41557922 -0.09496467 0 0 Z M4.55880737 18.6292057 C4.55880737 24.5692057 4.55880737 30.5092057 4.55880737 36.6292057 C8.2575671 40.16003639 8.2575671 40.16003639 11.23068237 41.4260807 C15.71809066 43.74507693 17.52012853 48.04033782 19.33615112 52.5667057 C21.42420457 59.33582014 20.79120978 66.4254175 17.93380737 72.8792057 C14.81876166 78.495383 10.20887928 81.80416975 4.55880737 84.6292057 C4.55880737 113.3392057 4.55880737 142.0492057 4.55880737 171.6292057 C161.63880737 171.6292057 318.71880737 171.6292057 480.55880737 171.6292057 C480.55880737 142.9192057 480.55880737 114.2092057 480.55880737 84.6292057 C477.91880737 82.9792057 475.27880737 81.3292057 472.55880737 79.6292057 C466.70177942 73.45558164 464.57182549 67.01287248 464.55880737 58.6292057 C465.15636326 52.67537616 467.55350588 47.09225593 471.55880737 42.6292057 C473.14802101 41.80793423 474.75338901 41.01737474 476.37130737 40.2542057 C477.75318237 39.0579557 479.13505737 37.8617057 480.55880737 36.6292057 C480.55880737 30.6892057 480.55880737 24.7492057 480.55880737 18.6292057 C323.47880737 18.6292057 166.39880737 18.6292057 4.55880737 18.6292057 Z M21.55880737 189.6292057 C21.55880737 191.9392057 21.55880737 194.2492057 21.55880737 196.6292057 C66.10880737 196.6292057 110.65880737 196.6292057 156.55880737 196.6292057 C156.55880737 194.3192057 156.55880737 192.0092057 156.55880737 189.6292057 C112.00880737 189.6292057 67.45880737 189.6292057 21.55880737 189.6292057 Z M208.55880737 189.6292057 C208.55880737 191.9392057 208.55880737 194.2492057 208.55880737 196.6292057 C292.70880737 196.6292057 376.85880737 196.6292057 463.55880737 196.6292057 C463.55880737 194.3192057 463.55880737 192.0092057 463.55880737 189.6292057 C379.40880737 189.6292057 295.25880737 189.6292057 208.55880737 189.6292057 Z " fill="#000000" transform="translate(13.441192626953125,148.37079429626465)"/>
<path d="M0 0 C1.14483856 -0.0159874 2.28967712 -0.03197479 3.46920776 -0.04844666 C4.70671783 -0.05380936 5.94422791 -0.05917206 7.21923828 -0.06469727 C8.49050568 -0.07372574 9.76177307 -0.08275421 11.07156372 -0.09205627 C13.76334799 -0.10657751 16.4547073 -0.11624523 19.14648438 -0.11914062 C22.58900748 -0.12452242 26.03035596 -0.16219297 29.47254753 -0.20788479 C32.76304124 -0.24485397 36.05356479 -0.24617154 39.34423828 -0.25219727 C41.19443069 -0.28149574 41.19443069 -0.28149574 43.08200073 -0.31138611 C52.59952528 -0.26113611 52.59952528 -0.26113611 55.66894531 2.65380859 C58.67913724 7.22803731 58.56283154 11.26208645 58.55981445 16.55395508 C58.56317307 17.39492233 58.56653168 18.23588959 58.56999207 19.1023407 C58.57950244 21.88652009 58.58144525 24.67063935 58.58251953 27.45483398 C58.58573215 29.38912989 58.58909623 31.32342555 58.59260559 33.25772095 C58.59859715 37.31464196 58.60044547 41.37154167 58.59985352 45.4284668 C58.59975192 50.62603482 58.61340184 55.82346618 58.63062572 61.02100182 C58.64174655 65.01700467 58.64377269 69.0129745 58.64324379 73.00899124 C58.64442387 74.92513118 58.6488472 76.84127198 58.65657616 78.7573967 C58.66637721 81.43837797 58.66349747 84.11906275 58.6574707 86.80004883 C58.66309021 87.59087357 58.66870972 88.3816983 58.67449951 89.19648743 C58.64543542 94.28640223 58.10033338 97.92171478 55.15110779 102.09364319 C52.63041527 103.85401048 50.68544821 103.6946824 47.62963867 103.71044922 C46.44153091 103.72313339 45.25342316 103.73581757 44.02931213 103.74888611 C42.74491745 103.74595047 41.46052277 103.74301483 40.13720703 103.73999023 C38.81917587 103.74523209 37.50114471 103.75047394 36.14317322 103.75587463 C33.35308263 103.76480919 30.56327821 103.76237933 27.77319336 103.75244141 C24.20066443 103.74095548 20.62912448 103.76115381 17.0567255 103.79035854 C13.64600024 103.81313715 10.23550657 103.80625335 6.82470703 103.80249023 C5.54233658 103.81372421 4.25996613 103.82495819 2.93873596 103.83653259 C1.74747604 103.82715164 0.55621613 103.81777069 -0.67114258 103.80810547 C-1.71910507 103.8079393 -2.76706757 103.80777313 -3.8467865 103.80760193 C-7.31456976 103.17295939 -8.4672037 102.08255195 -10.58544922 99.30639648 C-11.85951822 95.24172385 -11.74060751 91.18185748 -11.74658203 86.96118164 C-11.75154694 86.12167465 -11.75651184 85.28216766 -11.7616272 84.41722107 C-11.77621808 81.643292 -11.78304528 78.8694201 -11.78857422 76.09545898 C-11.79432768 74.16498819 -11.80008539 72.2345174 -11.80584717 70.30404663 C-11.81634804 66.25730117 -11.82219686 62.21057553 -11.82568359 58.16381836 C-11.83116999 52.98313404 -11.85520503 47.80271231 -11.88365555 42.62211037 C-11.90229431 38.63464597 -11.90748816 34.64724472 -11.90901947 30.65974045 C-11.91204312 28.74999937 -11.92006195 26.84025932 -11.93320465 24.93056107 C-11.95029293 22.25697163 -11.94837828 19.58402254 -11.94189453 16.91040039 C-11.95110931 16.12474197 -11.9603241 15.33908356 -11.96981812 14.52961731 C-11.93350212 9.74001023 -11.24985639 6.44607643 -8.58544922 2.30639648 C-5.19743881 0.04772288 -3.97668857 0.04194953 0 0 Z M6.41455078 18.30639648 C6.41455078 40.41639648 6.41455078 62.52639648 6.41455078 85.30639648 C17.63455078 85.30639648 28.85455078 85.30639648 40.41455078 85.30639648 C40.41455078 63.19639648 40.41455078 41.08639648 40.41455078 18.30639648 C29.19455078 18.30639648 17.97455078 18.30639648 6.41455078 18.30639648 Z " fill="#000000" transform="translate(232.58544921875,182.693603515625)"/>
<path d="M0 0 C1.12812103 -0.00637985 2.25624207 -0.0127597 3.41854858 -0.01933289 C5.25445053 -0.02100212 5.25445053 -0.02100212 7.12744141 -0.02270508 C8.38029938 -0.02603348 9.63315735 -0.02936188 10.92398071 -0.03279114 C13.57875103 -0.03786218 16.23341903 -0.04063103 18.88818359 -0.04003906 C22.28669914 -0.03993753 25.68500533 -0.0535798 29.0834713 -0.07081127 C32.32728685 -0.08461945 35.57110045 -0.08402048 38.81494141 -0.08520508 C40.03482758 -0.09239059 41.25471375 -0.09957611 42.51156616 -0.10697937 C44.21320419 -0.10236443 44.21320419 -0.10236443 45.94921875 -0.09765625 C46.94690277 -0.09908127 47.94458679 -0.10050629 48.97250366 -0.10197449 C51.72746258 0.15686302 53.30668482 0.62504242 55.60400391 2.14526367 C58.21535413 6.06228901 57.90684911 9.39690932 57.91040039 13.94360352 C57.91872391 14.84309219 57.92704742 15.74258087 57.93562317 16.66932678 C57.95975517 19.6483287 57.96849912 22.62711182 57.97509766 25.60620117 C57.98406141 27.67501899 57.9931832 29.74383613 58.00245667 31.81265259 C58.01895782 36.15205461 58.02664886 40.49137938 58.02954102 44.83081055 C58.03492656 50.39183746 58.07260918 55.95213857 58.11828518 61.51296043 C58.14802433 65.78692274 58.15526389 70.0607096 58.15626717 74.33476639 C58.16047556 76.38490753 58.17293454 78.43504891 58.19378471 80.48508835 C58.22063419 83.35331372 58.21589287 86.21984799 58.20336914 89.08813477 C58.21820343 89.93506393 58.23303772 90.7819931 58.24832153 91.65458679 C58.19618609 95.84658273 57.94456578 97.66970315 55.43655396 101.17189026 C52.18641239 103.43619021 50.60709831 103.77268584 46.68383789 103.77636719 C44.93193398 103.79516685 44.93193398 103.79516685 43.14463806 103.81434631 C41.89243973 103.8010881 40.64024139 103.7878299 39.35009766 103.77416992 C37.41058983 103.77778786 37.41058983 103.77778786 35.43190002 103.78147888 C32.70061663 103.78433144 29.97015579 103.76968939 27.23901367 103.7421875 C23.74267805 103.70806946 20.24780916 103.714138 16.75140285 103.73285007 C13.40915568 103.74597242 10.06733459 103.72770424 6.72509766 103.71166992 C5.47087509 103.71662979 4.21665253 103.72158966 2.92442322 103.72669983 C1.17724754 103.70294533 1.17724754 103.70294533 -0.60522461 103.67871094 C-1.6293898 103.67251236 -2.65355499 103.66631378 -3.70875549 103.65992737 C-7.08835877 103.0126615 -8.25459769 101.77912087 -10.39599609 99.14526367 C-12.03342902 95.87039782 -11.56141662 92.24424012 -11.57299805 88.64404297 C-11.57956924 87.76420746 -11.58614044 86.88437195 -11.59291077 85.97787476 C-11.61266488 83.05840984 -11.62431084 80.13899639 -11.63427734 77.21948242 C-11.63835287 76.22359415 -11.6424284 75.22770588 -11.64662743 74.20163918 C-11.66749682 68.93097769 -11.68179498 63.66034232 -11.69116211 58.38964844 C-11.70223056 52.94194025 -11.73663311 47.49464009 -11.77633381 42.04707623 C-11.80246202 37.86148817 -11.81085056 33.6759979 -11.81444359 29.49033546 C-11.81931908 27.4820664 -11.83096035 25.47380198 -11.84948158 23.46561241 C-11.87379304 20.65496744 -11.87292267 17.84538559 -11.8659668 15.03466797 C-11.87877686 14.20486923 -11.89158691 13.3750705 -11.90478516 12.52012634 C-11.86876346 8.52738618 -11.68886272 6.60555976 -9.49162292 3.1521759 C-6.24649719 0.04442674 -4.39563569 0.016821 0 0 Z M6.60400391 18.14526367 C6.60400391 40.25526367 6.60400391 62.36526367 6.60400391 85.14526367 C17.49400391 85.14526367 28.38400391 85.14526367 39.60400391 85.14526367 C39.60400391 63.03526367 39.60400391 40.92526367 39.60400391 18.14526367 C28.71400391 18.14526367 17.82400391 18.14526367 6.60400391 18.14526367 Z " fill="#000000" transform="translate(403.39599609375,182.854736328125)"/>
<path d="M0 0 C1.68734001 -0.01925285 1.68734001 -0.01925285 3.4087677 -0.03889465 C5.23996407 -0.04997505 5.23996407 -0.04997505 7.1081543 -0.0612793 C8.35864059 -0.06935104 9.60912689 -0.07742279 10.89750671 -0.08573914 C13.54808263 -0.09959 16.19853374 -0.11060341 18.84912109 -0.11816406 C22.23878054 -0.12922017 25.62778197 -0.16361025 29.01720905 -0.20333576 C32.25579215 -0.2358211 35.4944331 -0.24028268 38.7331543 -0.2487793 C40.55524162 -0.27504143 40.55524162 -0.27504143 42.41413879 -0.30183411 C43.54848862 -0.29890854 44.68283844 -0.29598297 45.8515625 -0.29296875 C47.34475761 -0.30176811 47.34475761 -0.30176811 48.86811829 -0.31074524 C52.38289607 0.31224741 54.06092535 1.74164922 56.61987305 4.17700195 C58.25959528 7.45644641 57.76708726 11.08968442 57.76513672 14.6940918 C57.76849533 15.5755336 57.77185394 16.4569754 57.77531433 17.36512756 C57.78484109 20.28941239 57.78676836 23.21364006 57.7878418 26.13793945 C57.79105335 28.16574121 57.79441735 30.19354273 57.79792786 32.22134399 C57.80392357 36.47675107 57.80576732 40.73213782 57.80517578 44.98754883 C57.80507417 50.44419315 57.81872302 55.90070731 57.83594799 61.35732079 C57.84705941 65.54715576 57.84909525 69.7369592 57.84856606 73.9268074 C57.8497476 75.93867059 57.85417909 77.95053455 57.86189842 79.96238327 C57.87168025 82.77538955 57.86882731 85.58811234 57.86279297 88.40112305 C57.86841248 89.23451706 57.87403198 90.06791107 57.87982178 90.92655945 C57.84016068 98.19120652 57.84016068 98.19120652 55.61987305 101.17700195 C52.21141499 103.44930733 50.94995344 103.44185738 46.94262695 103.48339844 C45.77776764 103.49938583 44.61290833 103.51537323 43.41275024 103.53184509 C42.15336639 103.53720779 40.89398254 103.5425705 39.59643555 103.5480957 C38.30297211 103.55712418 37.00950867 103.56615265 35.67684937 103.57545471 C32.93810533 103.59194011 30.19948346 103.59964388 27.46069336 103.60253906 C23.95764481 103.60792103 20.45575049 103.64559214 16.95302773 103.69128323 C13.60500222 103.7282496 10.25715822 103.72956965 6.90893555 103.7355957 C5.02593246 103.76489418 5.02593246 103.76489418 3.10488892 103.79478455 C1.93372528 103.78870682 0.76256165 103.78262909 -0.4440918 103.77636719 C-1.47206879 103.78143784 -2.50004578 103.78650848 -3.55917358 103.79173279 C-7.59181176 102.91295646 -8.98499351 101.52113146 -11.38012695 98.17700195 C-12.08272508 95.15486783 -12.05399699 92.22780562 -12.01123047 89.13574219 C-12.02196342 87.78366165 -12.02196342 87.78366165 -12.03291321 86.40426636 C-12.04979402 83.43085743 -12.03040271 80.45895736 -12.0090332 77.4855957 C-12.00986188 75.41724015 -12.01232123 73.34888465 -12.01634216 71.28053284 C-12.01919965 66.94870143 -12.00450212 62.61738722 -11.97705078 58.28564453 C-11.94294706 52.73131978 -11.94899391 47.17791859 -11.96771336 41.62354946 C-11.97827744 37.35386955 -11.96935121 33.08440485 -11.95432854 28.81474495 C-11.94914337 26.7666087 -11.94963257 24.71845 -11.95587349 22.6703167 C-11.96131931 19.80934103 -11.9409716 16.94969175 -11.91357422 14.08886719 C-11.9201001 13.24148483 -11.92662598 12.39410248 -11.93334961 11.52104187 C-11.83975251 5.77780255 -11.83975251 5.77780255 -9.4717865 2.68251038 C-6.08963346 0.24814676 -4.13976095 0.04103678 0 0 Z M6.61987305 18.17700195 C6.61987305 40.28700195 6.61987305 62.39700195 6.61987305 85.17700195 C17.50987305 85.17700195 28.39987305 85.17700195 39.61987305 85.17700195 C39.61987305 63.06700195 39.61987305 40.95700195 39.61987305 18.17700195 C28.72987305 18.17700195 17.83987305 18.17700195 6.61987305 18.17700195 Z " fill="#000000" transform="translate(318.380126953125,182.822998046875)"/>
<path d="M0 0 C1.12812103 -0.00637985 2.25624207 -0.0127597 3.41854858 -0.01933289 C5.25445053 -0.02100212 5.25445053 -0.02100212 7.12744141 -0.02270508 C8.38029938 -0.02603348 9.63315735 -0.02936188 10.92398071 -0.03279114 C13.57875103 -0.03786218 16.23341903 -0.04063103 18.88818359 -0.04003906 C22.28669914 -0.03993753 25.68500533 -0.0535798 29.0834713 -0.07081127 C32.32728685 -0.08461945 35.57110045 -0.08402048 38.81494141 -0.08520508 C40.03482758 -0.09239059 41.25471375 -0.09957611 42.51156616 -0.10697937 C44.21320419 -0.10236443 44.21320419 -0.10236443 45.94921875 -0.09765625 C46.94690277 -0.09908127 47.94458679 -0.10050629 48.97250366 -0.10197449 C51.72746258 0.15686302 53.30668482 0.62504242 55.60400391 2.14526367 C58.21535413 6.06228901 57.90684911 9.39690932 57.91040039 13.94360352 C57.91872391 14.84309219 57.92704742 15.74258087 57.93562317 16.66932678 C57.95975517 19.6483287 57.96849912 22.62711182 57.97509766 25.60620117 C57.98406141 27.67501899 57.9931832 29.74383613 58.00245667 31.81265259 C58.01895782 36.15205461 58.02664886 40.49137938 58.02954102 44.83081055 C58.03492656 50.39183746 58.07260918 55.95213857 58.11828518 61.51296043 C58.14802433 65.78692274 58.15526389 70.0607096 58.15626717 74.33476639 C58.16047556 76.38490753 58.17293454 78.43504891 58.19378471 80.48508835 C58.22063419 83.35331372 58.21589287 86.21984799 58.20336914 89.08813477 C58.21820343 89.93506393 58.23303772 90.7819931 58.24832153 91.65458679 C58.19618609 95.84658273 57.94456578 97.66970315 55.43655396 101.17189026 C52.18641239 103.43619021 50.60709831 103.77268584 46.68383789 103.77636719 C44.93193398 103.79516685 44.93193398 103.79516685 43.14463806 103.81434631 C41.89243973 103.8010881 40.64024139 103.7878299 39.35009766 103.77416992 C37.41058983 103.77778786 37.41058983 103.77778786 35.43190002 103.78147888 C32.70061663 103.78433144 29.97015579 103.76968939 27.23901367 103.7421875 C23.74267805 103.70806946 20.24780916 103.714138 16.75140285 103.73285007 C13.40915568 103.74597242 10.06733459 103.72770424 6.72509766 103.71166992 C5.47087509 103.71662979 4.21665253 103.72158966 2.92442322 103.72669983 C1.17724754 103.70294533 1.17724754 103.70294533 -0.60522461 103.67871094 C-1.6293898 103.67251236 -2.65355499 103.66631378 -3.70875549 103.65992737 C-7.08835877 103.0126615 -8.25459769 101.77912087 -10.39599609 99.14526367 C-12.03342902 95.87039782 -11.56141662 92.24424012 -11.57299805 88.64404297 C-11.57956924 87.76420746 -11.58614044 86.88437195 -11.59291077 85.97787476 C-11.61266488 83.05840984 -11.62431084 80.13899639 -11.63427734 77.21948242 C-11.63835287 76.22359415 -11.6424284 75.22770588 -11.64662743 74.20163918 C-11.66749682 68.93097769 -11.68179498 63.66034232 -11.69116211 58.38964844 C-11.70223056 52.94194025 -11.73663311 47.49464009 -11.77633381 42.04707623 C-11.80246202 37.86148817 -11.81085056 33.6759979 -11.81444359 29.49033546 C-11.81931908 27.4820664 -11.83096035 25.47380198 -11.84948158 23.46561241 C-11.87379304 20.65496744 -11.87292267 17.84538559 -11.8659668 15.03466797 C-11.87877686 14.20486923 -11.89158691 13.3750705 -11.90478516 12.52012634 C-11.86876346 8.52738618 -11.68886272 6.60555976 -9.49162292 3.1521759 C-6.24649719 0.04442674 -4.39563569 0.016821 0 0 Z M6.60400391 18.14526367 C6.60400391 40.25526367 6.60400391 62.36526367 6.60400391 85.14526367 C17.49400391 85.14526367 28.38400391 85.14526367 39.60400391 85.14526367 C39.60400391 63.03526367 39.60400391 40.92526367 39.60400391 18.14526367 C28.71400391 18.14526367 17.82400391 18.14526367 6.60400391 18.14526367 Z " fill="#000000" transform="translate(147.39599609375,182.854736328125)"/>
<path d="M0 0 C1.68734001 -0.01925285 1.68734001 -0.01925285 3.4087677 -0.03889465 C5.23996407 -0.04997505 5.23996407 -0.04997505 7.1081543 -0.0612793 C8.35864059 -0.06935104 9.60912689 -0.07742279 10.89750671 -0.08573914 C13.54808263 -0.09959 16.19853374 -0.11060341 18.84912109 -0.11816406 C22.23878054 -0.12922017 25.62778197 -0.16361025 29.01720905 -0.20333576 C32.25579215 -0.2358211 35.4944331 -0.24028268 38.7331543 -0.2487793 C40.55524162 -0.27504143 40.55524162 -0.27504143 42.41413879 -0.30183411 C43.54848862 -0.29890854 44.68283844 -0.29598297 45.8515625 -0.29296875 C47.34475761 -0.30176811 47.34475761 -0.30176811 48.86811829 -0.31074524 C52.38289607 0.31224741 54.06092535 1.74164922 56.61987305 4.17700195 C58.25959528 7.45644641 57.76708726 11.08968442 57.76513672 14.6940918 C57.76849533 15.5755336 57.77185394 16.4569754 57.77531433 17.36512756 C57.78484109 20.28941239 57.78676836 23.21364006 57.7878418 26.13793945 C57.79105335 28.16574121 57.79441735 30.19354273 57.79792786 32.22134399 C57.80392357 36.47675107 57.80576732 40.73213782 57.80517578 44.98754883 C57.80507417 50.44419315 57.81872302 55.90070731 57.83594799 61.35732079 C57.84705941 65.54715576 57.84909525 69.7369592 57.84856606 73.9268074 C57.8497476 75.93867059 57.85417909 77.95053455 57.86189842 79.96238327 C57.87168025 82.77538955 57.86882731 85.58811234 57.86279297 88.40112305 C57.86841248 89.23451706 57.87403198 90.06791107 57.87982178 90.92655945 C57.84016068 98.19120652 57.84016068 98.19120652 55.61987305 101.17700195 C52.21141499 103.44930733 50.94995344 103.44185738 46.94262695 103.48339844 C45.77776764 103.49938583 44.61290833 103.51537323 43.41275024 103.53184509 C42.15336639 103.53720779 40.89398254 103.5425705 39.59643555 103.5480957 C38.30297211 103.55712418 37.00950867 103.56615265 35.67684937 103.57545471 C32.93810533 103.59194011 30.19948346 103.59964388 27.46069336 103.60253906 C23.95764481 103.60792103 20.45575049 103.64559214 16.95302773 103.69128323 C13.60500222 103.7282496 10.25715822 103.72956965 6.90893555 103.7355957 C5.02593246 103.76489418 5.02593246 103.76489418 3.10488892 103.79478455 C1.93372528 103.78870682 0.76256165 103.78262909 -0.4440918 103.77636719 C-1.47206879 103.78143784 -2.50004578 103.78650848 -3.55917358 103.79173279 C-7.59181176 102.91295646 -8.98499351 101.52113146 -11.38012695 98.17700195 C-12.08272508 95.15486783 -12.05399699 92.22780562 -12.01123047 89.13574219 C-12.02196342 87.78366165 -12.02196342 87.78366165 -12.03291321 86.40426636 C-12.04979402 83.43085743 -12.03040271 80.45895736 -12.0090332 77.4855957 C-12.00986188 75.41724015 -12.01232123 73.34888465 -12.01634216 71.28053284 C-12.01919965 66.94870143 -12.00450212 62.61738722 -11.97705078 58.28564453 C-11.94294706 52.73131978 -11.94899391 47.17791859 -11.96771336 41.62354946 C-11.97827744 37.35386955 -11.96935121 33.08440485 -11.95432854 28.81474495 C-11.94914337 26.7666087 -11.94963257 24.71845 -11.95587349 22.6703167 C-11.96131931 19.80934103 -11.9409716 16.94969175 -11.91357422 14.08886719 C-11.9201001 13.24148483 -11.92662598 12.39410248 -11.93334961 11.52104187 C-11.83975251 5.77780255 -11.83975251 5.77780255 -9.4717865 2.68251038 C-6.08963346 0.24814676 -4.13976095 0.04103678 0 0 Z M6.61987305 18.17700195 C6.61987305 40.28700195 6.61987305 62.39700195 6.61987305 85.17700195 C17.50987305 85.17700195 28.39987305 85.17700195 39.61987305 85.17700195 C39.61987305 63.06700195 39.61987305 40.95700195 39.61987305 18.17700195 C28.72987305 18.17700195 17.83987305 18.17700195 6.61987305 18.17700195 Z " fill="#000000" transform="translate(62.380126953125,182.822998046875)"/>
</svg>
